<svg width="26" height="26" viewBox="0 0 26 26" fill="none" xmlns="http://www.w3.org/2000/svg">
<path fill-rule="evenodd" clip-rule="evenodd" d="M1.625 13C1.625 12.7845 1.7106 12.5778 1.86298 12.4254C2.01535 12.2731 2.22201 12.1875 2.4375 12.1875L21.6011 12.1874L16.4873 7.0752C16.3347 6.92263 16.249 6.71571 16.249 6.49995C16.249 6.28419 16.3347 6.07727 16.4873 5.9247C16.6398 5.77213 16.8467 5.68642 17.0625 5.68642C17.2783 5.68642 17.4852 5.77213 17.6377 5.9247L24.1378 12.4247C24.2134 12.5002 24.2734 12.5898 24.3144 12.6885C24.3554 12.7873 24.3765 12.8931 24.3765 12.9999C24.3765 13.1068 24.3554 13.2126 24.3144 13.3114C24.2734 13.4101 24.2134 13.4997 24.1378 13.5752L17.6378 20.0752C17.4852 20.2278 17.2783 20.3135 17.0625 20.3135C16.8467 20.3135 16.6398 20.2278 16.4873 20.0752C16.3347 19.9226 16.249 19.7157 16.249 19.4999C16.249 19.2842 16.3347 19.0773 16.4873 18.9247L21.6011 13.8124L2.4375 13.8125C2.22201 13.8125 2.01535 13.7268 1.86298 13.5745C1.7106 13.4221 1.625 13.2154 1.625 13Z" fill="#3A3A3A"/>
</svg>
