<svg width="65" height="65" viewBox="0 0 65 65" fill="none" xmlns="http://www.w3.org/2000/svg">
<path d="M21.125 19.5C20.694 19.5 20.2807 19.6712 19.976 19.976C19.6712 20.2807 19.5 20.694 19.5 21.125V30.875C19.5 31.306 19.6712 31.7193 19.976 32.024C20.2807 32.3288 20.694 32.5 21.125 32.5H43.875C44.306 32.5 44.7193 32.3288 45.024 32.024C45.3288 31.7193 45.5 31.306 45.5 30.875V21.125C45.5 20.694 45.3288 20.2807 45.024 19.976C44.7193 19.6712 44.306 19.5 43.875 19.5H21.125ZM22.75 29.25V22.75H42.25V29.25H22.75ZM55.25 17.875C55.25 15.7201 54.394 13.6535 52.8702 12.1298C51.3465 10.606 49.2799 9.75 47.125 9.75H17.875C15.7201 9.75 13.6535 10.606 12.1298 12.1298C10.606 13.6535 9.75 15.7201 9.75 17.875V47.125C9.75 49.2799 10.606 51.3465 12.1298 52.8702C13.6535 54.394 15.7201 55.25 17.875 55.25H47.125C49.2799 55.25 51.3465 54.394 52.8702 52.8702C54.394 51.3465 55.25 49.2799 55.25 47.125V17.875ZM17.875 13H47.125C48.4179 13 49.6579 13.5136 50.5721 14.4279C51.4864 15.3421 52 16.5821 52 17.875V47.125C52 48.4179 51.4864 49.6579 50.5721 50.5721C49.6579 51.4864 48.4179 52 47.125 52H17.875C16.5821 52 15.3421 51.4864 14.4279 50.5721C13.5136 49.6579 13 48.4179 13 47.125V17.875C13 16.5821 13.5136 15.3421 14.4279 14.4279C15.3421 13.5136 16.5821 13 17.875 13Z" fill="#FFAB87"/>
</svg>
