<svg width="57" height="57" viewBox="0 0 57 57" fill="none" xmlns="http://www.w3.org/2000/svg">
<path d="M5.54782 23.0018C4.64048 26.7828 4.6817 30.7294 5.6678 34.4906C6.6539 38.2518 8.55431 41.711 11.2 44.5605C13.8457 47.4099 17.1546 49.5613 20.8324 50.8233C24.5103 52.0853 28.443 52.4187 32.2808 51.7939C36.007 51.1889 39.5336 49.6984 42.5642 47.4476C45.5947 45.1967 48.0408 42.2514 49.6967 38.8589C51.3526 35.4665 52.1701 31.7262 52.0804 27.9523C51.9908 24.1783 50.9965 20.4811 49.1813 17.1711C47.1266 13.4816 44.1295 10.4035 40.496 8.2513C36.8625 6.09907 32.7228 4.94981 28.4998 4.9209C28.1862 4.9252 27.8867 5.05169 27.6649 5.27347C27.4431 5.49524 27.3166 5.79479 27.3123 6.1084V16.0834C27.3123 16.3983 27.4374 16.7004 27.6601 16.9231C27.8828 17.1458 28.1849 17.2709 28.4998 17.2709C28.8148 17.2709 29.1168 17.1458 29.3395 16.9231C29.5622 16.7004 29.6873 16.3983 29.6873 16.0834V6.1084L28.4998 7.2959C31.8905 7.29533 35.2319 8.10725 38.2442 9.66365C41.2565 11.2201 43.8521 13.4756 45.8134 16.2414C47.7747 19.0072 49.0447 22.2028 49.5171 25.5603C49.9894 28.9179 49.6503 32.3398 48.5282 35.5394C47.4101 38.7271 45.5474 41.602 43.0948 43.9251C40.6422 46.2481 37.6707 47.9524 34.427 48.8961C31.1834 49.8398 27.7614 49.9957 24.4453 49.351C21.1293 48.7062 18.015 47.2794 15.3613 45.189C12.2071 42.6672 9.82792 39.307 8.49704 35.4941C7.16617 31.6813 6.93751 27.5704 7.83732 23.6335C8.17457 22.1444 5.88507 21.496 5.54782 23.0018Z" fill="#FFAB87"/>
<path d="M17.5746 19.2781C17.3582 19.0541 17.2386 18.7542 17.2413 18.4428C17.244 18.1314 17.3688 17.8336 17.589 17.6134C17.8092 17.3933 18.107 17.2684 18.4184 17.2657C18.7298 17.263 19.0297 17.3827 19.2537 17.599L29.3308 27.6737C29.5471 27.8977 29.6668 28.1977 29.6641 28.509C29.6614 28.8204 29.5365 29.1182 29.3163 29.3384C29.0962 29.5586 28.7983 29.6834 28.487 29.6861C28.1756 29.6889 27.8756 29.5692 27.6517 29.3528L17.5746 19.2781Z" fill="#FFAB87"/>
</svg>
