<svg width="49" height="49" viewBox="0 0 49 49" fill="none" xmlns="http://www.w3.org/2000/svg">
<path d="M47.7181 10.8806L37.2181 0.380559C36.9744 0.136891 36.6439 0 36.2993 0C35.9547 0 35.6242 0.136891 35.3806 0.380559C35.1369 0.624226 35 0.954711 35 1.29931C35 1.64391 35.1369 1.97439 35.3806 2.21806L39.6899 6.54931L32.7993 13.4399L24.9681 5.63056C24.8474 5.50991 24.7042 5.4142 24.5465 5.3489C24.3889 5.28361 24.2199 5.25 24.0493 5.25C23.8787 5.25 23.7097 5.28361 23.5521 5.3489C23.3944 5.4142 23.2512 5.50991 23.1306 5.63056C23.0099 5.75121 22.9142 5.89444 22.8489 6.05208C22.7836 6.20972 22.75 6.37868 22.75 6.54931C22.75 6.71994 22.7836 6.88889 22.8489 7.04653C22.9142 7.20417 23.0099 7.34741 23.1306 7.46806L24.8149 9.17431L6.13368 27.8556C5.56534 28.4339 5.24378 29.2104 5.23681 30.0212V41.0024L0.380559 45.8806C0.259907 46.0012 0.164201 46.1444 0.0989041 46.3021C0.0336078 46.4597 4.02012e-09 46.6287 0 46.7993C-4.02012e-09 46.9699 0.0336078 47.1389 0.0989041 47.2965C0.1642 47.4542 0.259907 47.5974 0.380559 47.7181C0.501211 47.8387 0.644445 47.9344 0.802085 47.9997C0.959724 48.065 1.12868 48.0986 1.29931 48.0986C1.46994 48.0986 1.63889 48.065 1.79653 47.9997C1.95417 47.9344 2.09741 47.8387 2.21806 47.7181L7.09618 42.8618H18.0774C18.8883 42.8548 19.6647 42.5333 20.2431 41.9649L38.9243 23.2837L40.6306 24.9681C40.8742 25.2117 41.2047 25.3486 41.5493 25.3486C41.8939 25.3486 42.2244 25.2117 42.4681 24.9681C42.7117 24.7244 42.8486 24.3939 42.8486 24.0493C42.8486 23.7047 42.7117 23.3742 42.4681 23.1306L34.6587 15.2993L41.5493 8.40868L45.8806 12.7181C46.0012 12.8387 46.1444 12.9344 46.3021 12.9997C46.4597 13.065 46.6287 13.0986 46.7993 13.0986C46.9699 13.0986 47.1389 13.065 47.2965 12.9997C47.4542 12.9344 47.5974 12.8387 47.7181 12.7181C47.8387 12.5974 47.9344 12.4542 47.9997 12.2965C48.065 12.1389 48.0986 11.9699 48.0986 11.7993C48.0986 11.6287 48.065 11.4597 47.9997 11.3021C47.9344 11.1444 47.8387 11.0012 47.7181 10.8806ZM18.3837 40.1056C18.3029 40.188 18.1928 40.2352 18.0774 40.2368H7.86181V30.0212C7.86345 29.9058 7.91063 29.7957 7.99306 29.7149L12.2368 25.4712L17.0056 30.2181C17.2492 30.4617 17.5797 30.5986 17.9243 30.5986C18.2689 30.5986 18.5994 30.4617 18.8431 30.2181C19.0867 29.9744 19.2236 29.6439 19.2236 29.2993C19.2236 28.9547 19.0867 28.6242 18.8431 28.3806L14.0962 23.6118L18.3618 19.3462L23.1306 24.0931C23.2512 24.2137 23.3944 24.3094 23.5521 24.3747C23.7097 24.44 23.8787 24.4736 24.0493 24.4736C24.2199 24.4736 24.3889 24.44 24.5465 24.3747C24.7042 24.3094 24.8474 24.2137 24.9681 24.0931C25.0887 23.9724 25.1844 23.8292 25.2497 23.6715C25.315 23.5139 25.3486 23.3449 25.3486 23.1743C25.3486 23.0037 25.315 22.8347 25.2497 22.6771C25.1844 22.5194 25.0887 22.3762 24.9681 22.2556L20.2212 17.4868L26.6743 11.0337L37.0649 21.4243L18.3837 40.1056Z" fill="#FFAB87"/>
</svg>
