<svg width="12" height="20" viewBox="0 0 12 20" fill="none" xmlns="http://www.w3.org/2000/svg">
<path d="M9.12499 19.0999L0.699987 10.6999C0.599987 10.5999 0.529321 10.4916 0.487988 10.3749C0.445988 10.2582 0.424988 10.1332 0.424988 9.9999C0.424988 9.86657 0.445988 9.74157 0.487988 9.6249C0.529321 9.50824 0.599987 9.3999 0.699987 9.2999L9.12499 0.874902C9.35832 0.641569 9.64999 0.524902 9.99999 0.524902C10.35 0.524902 10.65 0.649902 10.9 0.899902C11.15 1.1499 11.275 1.44157 11.275 1.7749C11.275 2.10824 11.15 2.3999 10.9 2.6499L3.54999 9.9999L10.9 17.3499C11.1333 17.5832 11.25 17.8706 11.25 18.2119C11.25 18.5539 11.125 18.8499 10.875 19.0999C10.625 19.3499 10.3333 19.4749 9.99999 19.4749C9.66665 19.4749 9.37499 19.3499 9.12499 19.0999Z" fill="#919191"/>
</svg>
