<svg width="25" height="25" viewBox="0 0 25 25" fill="none" xmlns="http://www.w3.org/2000/svg">
<g clip-path="url(#clip0_243_2243)">
<path d="M0.233154 3.97225C0.233154 3.19783 0.504206 2.55894 1.04629 2.05559C1.58836 1.55221 2.29309 1.30054 3.16042 1.30054C4.01228 1.30054 4.70149 1.54833 5.2281 2.04397C5.77018 2.55508 6.04123 3.22106 6.04123 4.04195C6.04123 4.78538 5.77794 5.4049 5.25133 5.90053C4.70925 6.41164 3.99679 6.6672 3.11396 6.6672H3.09073C2.23887 6.6672 1.54966 6.41164 1.02305 5.90053C0.496446 5.38942 0.233154 4.74665 0.233154 3.97225ZM0.535174 24.3005V8.78134H5.69275V24.3005H0.535174ZM8.55032 24.3005H13.7079V15.6349C13.7079 15.0928 13.7699 14.6746 13.8938 14.3803C14.1106 13.8537 14.4397 13.4084 14.8811 13.0445C15.3225 12.6805 15.8762 12.4985 16.5422 12.4985C18.2769 12.4985 19.1443 13.6679 19.1443 16.0066V24.3005H24.3018V15.4025C24.3018 13.1103 23.7597 11.3717 22.6756 10.1869C21.5914 9.00205 20.1587 8.40962 18.3776 8.40962C16.3796 8.40962 14.823 9.26922 13.7079 10.9884V11.0349H13.6847L13.7079 10.9884V8.78134H8.55032C8.58129 9.27695 8.59678 10.818 8.59678 13.4046C8.59678 15.9911 8.58129 19.6231 8.55032 24.3005Z" fill="white"/>
</g>
<defs>
<clipPath id="clip0_243_2243">
<rect x="0.233154" y="0.760986" width="24.0687" height="24.0687" fill="white"/>
</clipPath>
</defs>
</svg>
