<svg width="28" height="62" viewBox="0 0 28 62" fill="none" xmlns="http://www.w3.org/2000/svg">
<path d="M26.8813 30.4624C17.7168 30.4068 9.05319 35.0261 0 35.7125V43.8938C0.166965 43.9123 0.333928 43.9494 0.500893 43.968C8.47809 44.9141 17.9209 41.983 25.9352 41.7047C26.4546 41.6861 26.9555 41.6861 27.4564 41.7047V30.4624C27.2709 30.481 27.0668 30.4624 26.8813 30.4624Z" fill="#BDB0A3"/>
<path d="M12.6522 10.3893C8.40388 10.4821 4.00715 9.96266 0 8.58984V18.6077C6.25189 19.4982 12.5594 19.962 18.6444 18.515C21.6683 17.7914 24.5623 16.6041 27.4564 15.3983V8.6084C22.5402 9.46177 17.624 10.2966 12.6522 10.3893Z" fill="#B08D8C"/>
<path d="M18.3661 45.0442C12.0585 46.3428 6.27044 49.5894 0 50.9993V55.8227C8.03285 55.0621 16.01 53.2626 24.08 53.3739C25.1931 53.3924 26.3247 53.4481 27.4564 53.5408V44.4135C24.4139 44.2836 21.3715 44.432 18.3661 45.0442Z" fill="#B08D8C"/>
<path d="M16.7336 23.0417C10.2961 23.4127 4.93473 23.524 0 22.615V30.3696C2.02213 30.4067 4.04425 30.3325 6.04783 30.1655C13.2644 29.5533 20.3326 27.9022 27.4749 26.6036V21.2979C23.8388 22.1512 20.0914 22.8562 16.7336 23.0417Z" fill="#F6C79F"/>
<path d="M27.4564 61.9999V61.2764C23.8945 59.7737 19.943 58.9017 15.7874 58.6977C10.6672 58.5307 5.26866 59.3655 0 61.1279V61.9999H27.4564Z" fill="#BDB0A3"/>
<path d="M20.6665 7.14237C22.9483 6.9383 25.2302 6.60437 27.4749 6.15913V0H0V4.50804C6.51162 6.88265 13.7467 7.73602 20.6665 7.14237Z" fill="#F6C79F"/>
</svg>
