<svg width="25" height="25" viewBox="0 0 25 25" fill="none" xmlns="http://www.w3.org/2000/svg">
<path d="M22.0368 4.39429H2.48103C2.065 4.39429 1.72888 4.7304 1.72888 5.14643V20.1894C1.72888 20.6054 2.065 20.9415 2.48103 20.9415H22.0368C22.4529 20.9415 22.789 20.6054 22.789 20.1894V5.14643C22.789 4.7304 22.4529 4.39429 22.0368 4.39429ZM21.0966 6.99859V19.2492H3.42121V6.99859L2.77248 6.49324L3.69621 5.30626L4.70221 6.08897H19.818L20.824 5.30626L21.7477 6.49324L21.0966 6.99859ZM19.818 6.08662L12.2589 11.9628L4.69986 6.08662L3.69386 5.30391L2.77013 6.49089L3.41886 6.99624L11.448 13.2391C11.6789 13.4184 11.963 13.5158 12.2554 13.5158C12.5478 13.5158 12.8319 13.4184 13.0628 13.2391L21.0966 6.99859L21.7454 6.49324L20.8216 5.30626L19.818 6.08662Z" fill="#707070"/>
</svg>
