<svg width="11" height="20" viewBox="0 0 11 20" fill="none" xmlns="http://www.w3.org/2000/svg">
<path d="M2.1501 0.899852L10.5751 9.29985C10.6751 9.39985 10.7458 9.50819 10.7871 9.62485C10.8291 9.74152 10.8501 9.86652 10.8501 9.99985C10.8501 10.1332 10.8291 10.2582 10.7871 10.3749C10.7458 10.4915 10.6751 10.5999 10.5751 10.6999L2.1501 19.1249C1.91676 19.3582 1.6251 19.4749 1.2751 19.4749C0.925097 19.4749 0.625098 19.3499 0.375098 19.0999C0.125098 18.8499 9.83086e-05 18.5582 9.83377e-05 18.2249C9.83669e-05 17.8915 0.125098 17.5999 0.375098 17.3499L7.7251 9.99985L0.3751 2.64985C0.141766 2.41652 0.0250994 2.12919 0.0250994 1.78785C0.0250994 1.44585 0.150099 1.14985 0.400099 0.899852C0.650099 0.649852 0.941766 0.524852 1.2751 0.524852C1.60843 0.524852 1.9001 0.649852 2.1501 0.899852Z" fill="black"/>
</svg>
