<svg width="25" height="25" viewBox="0 0 25 25" fill="none" xmlns="http://www.w3.org/2000/svg">
<path d="M10.8059 6.77121L7.4132 2.85503C7.02209 2.40375 6.30504 2.40575 5.85074 2.86105L3.06078 5.65603C2.23041 6.4874 1.99274 7.72192 2.47311 8.71174C5.34291 14.6537 10.135 19.4525 16.0729 22.3306C17.0617 22.811 18.2952 22.5733 19.1256 21.7419L21.9417 18.9209C22.398 18.4646 22.399 17.7435 21.9437 17.3524L18.0124 13.9778C17.6013 13.6248 16.9624 13.6709 16.5503 14.0841L15.1824 15.454C15.1123 15.5274 15.0202 15.5758 14.92 15.5917C14.8198 15.6076 14.7171 15.5903 14.6278 15.5422C12.3919 14.2547 10.5371 12.3975 9.25245 10.1599C9.20434 10.0704 9.18692 9.96755 9.20286 9.8672C9.2188 9.76684 9.26722 9.67448 9.3407 9.60429L10.7046 8.2394C11.1178 7.82421 11.1629 7.18238 10.8059 6.7702V6.77121Z" stroke="#707070" stroke-width="1.6" stroke-linecap="round" stroke-linejoin="round"/>
</svg>
