<svg width="86" height="86" viewBox="0 0 86 86" fill="none" xmlns="http://www.w3.org/2000/svg">
<path d="M43 0.125C19.323 0.125 0.125 19.323 0.125 43C0.125 66.677 19.323 85.875 43 85.875C66.677 85.875 85.875 66.677 85.875 43C85.875 19.323 66.677 0.125 43 0.125ZM56.7908 43.6604L35.8893 58.8676C35.7747 58.9499 35.6396 58.9991 35.4989 59.0097C35.3582 59.0202 35.2173 58.9918 35.0917 58.9275C34.9661 58.8632 34.8606 58.7656 34.7869 58.6452C34.7132 58.5249 34.6741 58.3866 34.6738 58.2455V27.8502C34.6734 27.7088 34.7121 27.5701 34.7856 27.4493C34.8592 27.3286 34.9648 27.2306 35.0906 27.1661C35.2165 27.1017 35.3577 27.0734 35.4987 27.0844C35.6397 27.0953 35.7748 27.1451 35.8893 27.2281L56.7908 42.4258C56.8896 42.4956 56.9701 42.5881 57.0257 42.6955C57.0813 42.8029 57.1103 42.9221 57.1103 43.0431C57.1103 43.164 57.0813 43.2832 57.0257 43.3906C56.9701 43.498 56.8896 43.5905 56.7908 43.6604Z" fill="#FFAB87"/>
</svg>
