<svg width="538" height="584" viewBox="0 0 538 584" fill="none" xmlns="http://www.w3.org/2000/svg">
<path d="M368.5 414.5C379.739 414.5 390.517 410.035 398.464 402.089C406.411 394.142 410.875 383.364 410.875 372.125V268.645C410.875 257.407 406.411 246.628 398.464 238.682C390.517 230.735 379.739 226.27 368.5 226.27H309.684C309.684 211.397 310.573 196.481 312.311 181.607C314.938 165.844 319.345 151.817 325.447 139.571C331.591 127.282 339.473 117.663 349.135 110.629C358.754 102.747 371 98.8063 385.916 98.8063V33.125C361.381 33.125 339.939 38.3795 321.506 48.8885C303.234 59.291 287.523 73.6546 275.529 90.9245C263.492 109.964 254.619 130.829 249.257 152.707C243.853 176.851 241.209 201.53 241.375 226.27V372.125C241.375 383.364 245.84 394.142 253.786 402.089C261.733 410.035 272.512 414.5 283.75 414.5H368.5ZM114.25 414.5C125.489 414.5 136.267 410.035 144.214 402.089C152.161 394.142 156.625 383.364 156.625 372.125V268.645C156.625 257.407 152.161 246.628 144.214 238.682C136.267 230.735 125.489 226.27 114.25 226.27H55.4335C55.4335 211.397 56.3234 196.481 58.0608 181.607C60.688 165.844 65.095 151.817 71.197 139.571C77.3414 127.282 85.2232 117.663 94.8847 110.629C104.504 102.747 116.75 98.8063 131.666 98.8063V33.125C107.131 33.125 85.6893 38.3795 67.2561 48.8885C48.9835 59.291 33.2732 73.6546 21.2793 90.9245C9.2416 109.964 0.369092 130.829 -4.99323 152.707C-10.3966 176.851 -13.0408 201.53 -12.875 226.27V372.125C-12.875 383.364 -8.41049 394.142 -0.463632 402.089C7.48322 410.035 18.2615 414.5 29.5 414.5H114.25Z" fill="url(#paint0_linear_847_631)" fill-opacity="0.13"/>
<defs>
<linearGradient id="paint0_linear_847_631" x1="258.387" y1="-52.4292" x2="115.363" y2="348.432" gradientUnits="userSpaceOnUse">
<stop stop-color="#6A71B7"/>
<stop offset="1" stop-color="#6A71B7" stop-opacity="0"/>
</linearGradient>
</defs>
</svg>
