<svg width="12" height="20" viewBox="0 0 12 20" fill="none" xmlns="http://www.w3.org/2000/svg">
<path d="M2.87501 0.900096L11.3 9.3001C11.4 9.4001 11.4707 9.50843 11.512 9.6251C11.554 9.74176 11.575 9.86676 11.575 10.0001C11.575 10.1334 11.554 10.2584 11.512 10.3751C11.4707 10.4918 11.4 10.6001 11.3 10.7001L2.87501 19.1251C2.64168 19.3584 2.35001 19.4751 2.00001 19.4751C1.65001 19.4751 1.35001 19.3501 1.10001 19.1001C0.850013 18.8501 0.725013 18.5584 0.725013 18.2251C0.725013 17.8918 0.850013 17.6001 1.10001 17.3501L8.45001 10.0001L1.10001 2.6501C0.866681 2.41676 0.750014 2.12943 0.750014 1.7881C0.750014 1.4461 0.875014 1.1501 1.12501 0.900096C1.37501 0.650096 1.66668 0.525096 2.00001 0.525096C2.33335 0.525096 2.62501 0.650096 2.87501 0.900096Z" fill="#919191"/>
</svg>
