<svg width="60" height="60" viewBox="0 0 60 60" fill="none" xmlns="http://www.w3.org/2000/svg">
<path fill-rule="evenodd" clip-rule="evenodd" d="M14.987 9.56314C18.22 7.40298 22.0208 6.25 25.909 6.25H25.9091C31.1228 6.25033 36.123 8.32164 39.8097 12.0083C43.4963 15.695 45.5676 20.6951 45.568 25.9089V25.909C45.568 29.7972 44.415 33.598 42.2548 36.8309C40.0947 40.0638 37.0244 42.5836 33.4322 44.0715C29.84 45.5595 25.8872 45.9488 22.0737 45.1902C18.2602 44.4317 14.7574 42.5593 12.008 39.81C9.25863 37.0606 7.3863 33.5577 6.62775 29.7443C5.8692 25.9308 6.25852 21.978 7.74646 18.3858C9.2344 14.7936 11.7541 11.7233 14.987 9.56314ZM25.9089 8.75C22.5152 8.75002 19.1977 9.75637 16.376 11.6418C13.5542 13.5273 11.3549 16.2071 10.0562 19.3425C8.75744 22.4779 8.41763 25.928 9.07971 29.2565C9.7418 32.5851 11.376 35.6425 13.7758 38.0422C16.1755 40.4419 19.2329 42.0762 22.5614 42.7383C25.89 43.4003 29.3401 43.0605 32.4755 41.7618C35.6108 40.4631 38.2907 38.2638 40.1762 35.442C42.0616 32.6202 43.068 29.3028 43.068 25.9091M25.909 8.75C30.4597 8.75031 34.824 10.5582 38.0419 13.7761C41.2598 16.994 43.0677 21.3582 43.068 25.909" fill="#FFAB87"/>
<path fill-rule="evenodd" clip-rule="evenodd" d="M38.7597 38.7594C39.2478 38.2713 40.0393 38.2713 40.5274 38.7594L53.3841 51.6161C53.8722 52.1042 53.8722 52.8957 53.3841 53.3838C52.8959 53.872 52.1045 53.872 51.6163 53.3838L38.7597 40.5272C38.2715 40.039 38.2715 39.2476 38.7597 38.7594Z" fill="#FFAB87"/>
</svg>
