<svg width="83" height="6" viewBox="0 0 83 6" fill="none" xmlns="http://www.w3.org/2000/svg">
<path d="M0.542199 5.67102H0L1.8313 0.398438H2.48968L4.33204 5.67102H3.77325L3.25871 4.14955H1.05673L0.542199 5.67102ZM2.15219 0.896373L1.21165 3.68481H3.09274L2.15219 0.896373Z" fill="white"/>
<path d="M10.1481 3.67401H7.56987C7.56987 3.96539 7.58832 4.21805 7.6252 4.43198C7.66208 4.64591 7.72479 4.82295 7.81331 4.96311C7.90183 5.09958 8.01802 5.20101 8.16187 5.2674C8.30571 5.33379 8.48645 5.36699 8.70406 5.36699C8.81103 5.36699 8.90877 5.35777 8.99729 5.33933C9.08581 5.32088 9.1688 5.28769 9.24626 5.23974C9.32372 5.19548 9.39748 5.14015 9.46756 5.07376C9.54133 5.00368 9.61141 4.917 9.6778 4.81373L10.0706 5.06823C10.0005 5.18257 9.92308 5.284 9.83825 5.37252C9.75342 5.46105 9.65567 5.53666 9.54502 5.59936C9.43437 5.65838 9.30896 5.70448 9.1688 5.73768C9.02495 5.77087 8.86267 5.78747 8.68193 5.78747C8.41637 5.78747 8.184 5.75059 7.98482 5.67682C7.78196 5.59936 7.61414 5.47764 7.48135 5.31166C7.34488 5.14569 7.24161 4.92991 7.17153 4.66435C7.10145 4.40247 7.06641 4.08342 7.06641 3.7072C7.06641 3.36787 7.09591 3.06542 7.15493 2.79985C7.21394 2.53429 7.30615 2.30929 7.43156 2.12487C7.56065 1.94045 7.72663 1.80029 7.9295 1.7044C8.13605 1.6085 8.38686 1.56055 8.68193 1.56055C8.94012 1.56055 9.16143 1.60112 9.34585 1.68226C9.53396 1.76341 9.68703 1.88144 9.80505 2.03635C9.92308 2.18758 10.0098 2.37569 10.0651 2.60068C10.1204 2.82198 10.1481 3.0728 10.1481 3.35312V3.67401ZM7.58094 3.27566H9.66121C9.65383 2.82567 9.57084 2.49556 9.41224 2.28532C9.25364 2.07508 9.00467 1.96996 8.66533 1.96996C8.49198 1.96996 8.34075 1.99578 8.21166 2.04742C8.08256 2.09906 7.97376 2.17836 7.88523 2.28532C7.79671 2.39228 7.72848 2.52691 7.68053 2.6892C7.63258 2.85518 7.59938 3.05067 7.58094 3.27566Z" fill="white"/>
<path d="M15.8317 4.64775C15.8317 4.83586 15.7985 5.00184 15.7321 5.14569C15.6694 5.28585 15.5754 5.40387 15.45 5.49977C15.3283 5.59567 15.1789 5.6676 15.0018 5.71555C14.8248 5.76349 14.6256 5.78747 14.4043 5.78747C14.1978 5.78747 14.017 5.76534 13.8621 5.72108C13.7072 5.67682 13.5726 5.62149 13.4582 5.5551C13.3476 5.48502 13.2554 5.40941 13.1816 5.32826C13.1078 5.24343 13.0525 5.16228 13.0156 5.08483L13.414 4.83586C13.5025 4.99815 13.6279 5.12724 13.7902 5.22314C13.9488 5.31904 14.1553 5.36699 14.4098 5.36699C14.5426 5.36699 14.6662 5.35592 14.7805 5.33379C14.8949 5.31166 14.9945 5.27478 15.0793 5.22314C15.1604 5.16782 15.225 5.09589 15.2729 5.00737C15.3209 4.91516 15.3449 4.80082 15.3449 4.66435C15.3449 4.55738 15.3301 4.46517 15.3006 4.38772C15.2711 4.31026 15.2176 4.24202 15.1402 4.18301C15.0627 4.12399 14.9576 4.07051 14.8248 4.02256C14.692 3.97461 14.5242 3.92298 14.3213 3.86765C14.1074 3.81232 13.923 3.75331 13.7681 3.69061C13.6131 3.6279 13.4859 3.55045 13.3863 3.45824C13.2867 3.36971 13.213 3.26275 13.165 3.13734C13.1171 3.01194 13.0931 2.85887 13.0931 2.67814C13.0931 2.5306 13.1207 2.3886 13.1761 2.25212C13.2314 2.11565 13.3144 1.99762 13.425 1.89804C13.5394 1.79476 13.6814 1.71362 13.8511 1.6546C14.0207 1.5919 14.2217 1.56055 14.4541 1.56055C14.6275 1.56055 14.7842 1.57899 14.9244 1.61587C15.0609 1.65645 15.1826 1.70808 15.2895 1.77079C15.3965 1.83718 15.4887 1.91279 15.5662 1.99762C15.6399 2.08615 15.7026 2.17651 15.7543 2.26872L15.3559 2.50663C15.319 2.43655 15.2729 2.36831 15.2176 2.30192C15.1623 2.23922 15.0977 2.18389 15.024 2.13594C14.9539 2.09168 14.8709 2.05479 14.775 2.02529C14.6828 1.99947 14.5758 1.98656 14.4541 1.98656C14.1812 1.98656 13.9672 2.04742 13.8123 2.16914C13.6537 2.28716 13.5744 2.45314 13.5744 2.66707C13.5744 2.77404 13.5892 2.8644 13.6187 2.93817C13.6445 3.01194 13.6906 3.07464 13.757 3.12628C13.8234 3.1816 13.9138 3.2314 14.0281 3.27566C14.1424 3.31992 14.2844 3.36418 14.4541 3.40844C14.7086 3.47852 14.9244 3.5486 15.1014 3.61868C15.2785 3.68876 15.4205 3.77175 15.5274 3.86765C15.6344 3.95986 15.7119 4.06867 15.7598 4.19407C15.8078 4.31948 15.8317 4.47071 15.8317 4.64775Z" fill="white"/>
<path d="M20.6971 5.2662L20.8188 5.66455C20.7192 5.69775 20.6067 5.72726 20.4813 5.75308C20.3559 5.77521 20.2287 5.78627 20.0996 5.78627C19.9041 5.78627 19.7381 5.7623 19.6016 5.71435C19.4688 5.66271 19.36 5.58525 19.2752 5.48198C19.1941 5.37501 19.1369 5.2367 19.1037 5.06703C19.0668 4.90105 19.0484 4.70003 19.0484 4.46397V2.09601H18.4453V1.67553H19.0484V0.563477H19.5408V1.67553H20.592V2.09601H19.5408V4.40312C19.5408 4.59123 19.55 4.74614 19.5684 4.86786C19.5869 4.99326 19.6182 5.09285 19.6625 5.16662C19.7068 5.24039 19.7658 5.29387 19.8395 5.32706C19.917 5.35657 20.0147 5.37133 20.1328 5.37133C20.225 5.37133 20.3227 5.36026 20.426 5.33813C20.533 5.31969 20.6233 5.29571 20.6971 5.2662Z" fill="white"/>
<path d="M26.6547 5.67094H26.1623V3.19232C26.1623 2.96364 26.1531 2.77553 26.1347 2.628C26.1125 2.47677 26.0775 2.3569 26.0295 2.26838C25.9779 2.17985 25.9078 2.11715 25.8193 2.08027C25.7308 2.04707 25.622 2.03047 25.4929 2.03047C25.3158 2.03047 25.1111 2.09502 24.8788 2.22411C24.6501 2.3569 24.414 2.53763 24.1706 2.76631V5.67094H23.6837V0H24.1706V2.3071C24.2849 2.20383 24.3993 2.10608 24.5136 2.01387C24.6279 1.92166 24.7441 1.84236 24.8622 1.77597C24.9802 1.70958 25.0982 1.6561 25.2163 1.61553C25.3343 1.57864 25.4542 1.5602 25.5759 1.5602C25.7898 1.5602 25.9668 1.59155 26.107 1.65425C26.2472 1.71696 26.3578 1.81101 26.439 1.93642C26.5201 2.05814 26.5773 2.20936 26.6105 2.39009C26.64 2.56714 26.6547 2.77184 26.6547 3.00421V5.67094Z" fill="white"/>
<path d="M32.8903 3.67401H30.3121C30.3121 3.96539 30.3305 4.21805 30.3674 4.43198C30.4043 4.64591 30.467 4.82295 30.5555 4.96311C30.644 5.09958 30.7602 5.20101 30.9041 5.2674C31.0479 5.33379 31.2286 5.36699 31.4462 5.36699C31.5532 5.36699 31.651 5.35777 31.7395 5.33933C31.828 5.32089 31.911 5.28769 31.9884 5.23974C32.0659 5.19548 32.1397 5.14015 32.2098 5.07376C32.2835 5.00368 32.3536 4.917 32.42 4.81373L32.8128 5.06823C32.7427 5.18257 32.6653 5.284 32.5804 5.37252C32.4956 5.46105 32.3979 5.53666 32.2872 5.59936C32.1766 5.65838 32.0511 5.70448 31.911 5.73768C31.7671 5.77087 31.6049 5.78747 31.4241 5.78747C31.1586 5.78747 30.9262 5.75059 30.727 5.67682C30.5241 5.59936 30.3563 5.47764 30.2235 5.31166C30.0871 5.14569 29.9838 4.92991 29.9137 4.66435C29.8436 4.40247 29.8086 4.08342 29.8086 3.7072C29.8086 3.36787 29.8381 3.06542 29.8971 2.79985C29.9561 2.53429 30.0483 2.30929 30.1737 2.12487C30.3028 1.94045 30.4688 1.80029 30.6717 1.7044C30.8782 1.6085 31.129 1.56055 31.4241 1.56055C31.6823 1.56055 31.9036 1.60112 32.088 1.68226C32.2761 1.76341 32.4292 1.88144 32.5472 2.03635C32.6653 2.18758 32.7519 2.37569 32.8073 2.60068C32.8626 2.82198 32.8903 3.0728 32.8903 3.35312V3.67401ZM30.3231 3.27566H32.4034C32.396 2.82567 32.313 2.49556 32.1544 2.28532C31.9958 2.07508 31.7469 1.96996 31.4075 1.96996C31.2342 1.96996 31.0829 1.99578 30.9538 2.04742C30.8248 2.09906 30.7159 2.17836 30.6274 2.28532C30.5389 2.39228 30.4707 2.52691 30.4227 2.6892C30.3748 2.85518 30.3416 3.05067 30.3231 3.27566Z" fill="white"/>
<path d="M37.7791 5.2662L37.9008 5.66455C37.8013 5.69775 37.6888 5.72726 37.5633 5.75308C37.4379 5.77521 37.3107 5.78627 37.1816 5.78627C36.9861 5.78627 36.8201 5.7623 36.6837 5.71435C36.5509 5.66271 36.4439 5.58525 36.3628 5.48198C36.2816 5.37501 36.2226 5.2367 36.1857 5.06703C36.1488 4.90105 36.1304 4.70003 36.1304 4.46397V2.09601H35.5273V1.67553H36.1304V0.563477H36.6228V1.67553H37.674V2.09601H36.6228V4.40312C36.6228 4.59123 36.632 4.74614 36.6505 4.86786C36.6689 4.99326 36.7003 5.09285 36.7445 5.16662C36.7888 5.24039 36.8478 5.29387 36.9216 5.32706C36.999 5.35657 37.0968 5.37133 37.2148 5.37133C37.307 5.37133 37.4047 5.36026 37.508 5.33813C37.615 5.31969 37.7054 5.29571 37.7791 5.2662Z" fill="white"/>
<path d="M41.3556 0.695565C41.3556 0.828348 41.328 0.91687 41.2727 0.961131C41.2173 1.00908 41.1288 1.03306 41.0071 1.03306C40.878 1.03306 40.7876 1.00355 40.736 0.944533C40.688 0.885519 40.6641 0.802529 40.6641 0.695565C40.6641 0.581225 40.688 0.498235 40.736 0.446597C40.7876 0.394959 40.878 0.369141 41.0071 0.369141C41.1362 0.369141 41.2265 0.394959 41.2782 0.446597C41.3298 0.498235 41.3556 0.581225 41.3556 0.695565ZM41.2505 5.66939H40.7636V1.67484H41.2505V5.66939Z" fill="white"/>
<path d="M47.0805 4.78606L47.4788 5.0295C47.4161 5.15122 47.3423 5.25818 47.2575 5.35039C47.1727 5.44629 47.0749 5.52559 46.9643 5.58829C46.8536 5.65469 46.7264 5.70448 46.5825 5.73768C46.4424 5.77087 46.2856 5.78747 46.1123 5.78747C45.7987 5.78747 45.5369 5.73399 45.3266 5.62702C45.1127 5.52006 44.9412 5.37437 44.8121 5.18995C44.6793 5.00184 44.5853 4.78053 44.5299 4.52603C44.4709 4.26784 44.4414 3.98937 44.4414 3.69061C44.4414 3.36603 44.4728 3.0728 44.5355 2.81092C44.5982 2.54535 44.6959 2.32036 44.8287 2.13594C44.9615 1.95152 45.133 1.80951 45.3432 1.70993C45.5535 1.61034 45.8061 1.56055 46.1012 1.56055C46.4184 1.56055 46.6821 1.62325 46.8924 1.74866C47.1063 1.87406 47.2852 2.06586 47.429 2.32405L47.0251 2.56748C46.9735 2.4679 46.9163 2.38122 46.8536 2.30745C46.7909 2.23737 46.7227 2.17836 46.6489 2.13041C46.5752 2.08246 46.4922 2.04742 46.4 2.02529C46.3077 1.99947 46.2045 1.98656 46.0901 1.98656C45.6918 1.98656 45.4022 2.13225 45.2215 2.42364C45.0408 2.71133 44.9504 3.13919 44.9504 3.7072C44.9504 3.95433 44.9688 4.17932 45.0057 4.38218C45.0463 4.58505 45.1127 4.76025 45.2049 4.90778C45.2934 5.05163 45.4115 5.16413 45.559 5.24527C45.7102 5.32642 45.8946 5.36699 46.1123 5.36699C46.234 5.36699 46.3428 5.35408 46.4387 5.32826C46.5346 5.29875 46.6213 5.26003 46.6987 5.21208C46.7725 5.16044 46.8407 5.09774 46.9034 5.02397C46.9624 4.95389 47.0215 4.87459 47.0805 4.78606Z" fill="white"/>
<path d="M58.0916 4.46326L58.5287 4.73436C58.4476 4.8819 58.3535 5.02021 58.2465 5.14931C58.1396 5.27471 58.0123 5.38537 57.8648 5.48127C57.7173 5.57348 57.5439 5.6454 57.3447 5.69704C57.1492 5.75236 56.9206 5.78003 56.6587 5.78003C55.8915 5.78003 55.3253 5.5495 54.9602 5.08845C54.5987 4.63109 54.418 3.94688 54.418 3.03585C54.418 2.59324 54.4604 2.20042 54.5452 1.8574C54.6337 1.51806 54.7665 1.23221 54.9436 0.999841C55.1243 0.767471 55.3548 0.590427 55.6351 0.46871C55.9118 0.346992 56.2419 0.286133 56.6255 0.286133C56.8726 0.286133 57.0921 0.310108 57.2839 0.358057C57.4757 0.406006 57.6453 0.474242 57.7929 0.562764C57.9404 0.651286 58.0677 0.75825 58.1746 0.883656C58.2816 1.00906 58.3756 1.14738 58.4568 1.2986L58.0142 1.58077C57.9478 1.45905 57.874 1.3484 57.7929 1.24881C57.7117 1.14922 57.6158 1.06254 57.5052 0.988776C57.3945 0.915008 57.2691 0.857837 57.129 0.817265C56.9851 0.776692 56.8173 0.756406 56.6255 0.756406C56.3267 0.756406 56.0722 0.806199 55.862 0.905787C55.6481 1.00537 55.4765 1.15291 55.3474 1.3484C55.2147 1.54388 55.1169 1.78179 55.0542 2.0621C54.9952 2.34242 54.9657 2.667 54.9657 3.03585C54.9657 3.401 54.9952 3.72374 55.0542 4.00406C55.1169 4.28437 55.2147 4.52228 55.3474 4.71776C55.4839 4.91325 55.6591 5.06079 55.873 5.16037C56.087 5.25996 56.3452 5.30975 56.6476 5.30975C56.8615 5.30975 57.046 5.28394 57.2009 5.2323C57.3595 5.18435 57.4941 5.1198 57.6048 5.03866C57.7154 4.95751 57.8095 4.8653 57.8869 4.76202C57.9644 4.66244 58.0326 4.56285 58.0916 4.46326Z" fill="white"/>
<path d="M62.1019 5.67094H61.6095V0H62.1019V5.67094Z" fill="white"/>
<path d="M66.1252 0.695565C66.1252 0.828348 66.0994 0.91687 66.0477 0.961131C65.9924 1.00908 65.902 1.03306 65.7766 1.03306C65.6475 1.03306 65.559 1.00355 65.5111 0.944533C65.4594 0.885519 65.4336 0.802529 65.4336 0.695565C65.4336 0.581225 65.4594 0.498235 65.5111 0.446597C65.5627 0.394959 65.6512 0.369141 65.7766 0.369141C65.9057 0.369141 65.9961 0.394959 66.0477 0.446597C66.0994 0.498235 66.1252 0.581225 66.1252 0.695565ZM66.0256 5.66939H65.5332V1.67484H66.0256V5.66939Z" fill="white"/>
<path d="M72.3906 5.67128H71.8982V3.19267C71.8982 2.96768 71.889 2.78141 71.8705 2.63388C71.8484 2.48265 71.8115 2.36278 71.7599 2.27426C71.7083 2.18573 71.64 2.12303 71.5552 2.08615C71.4667 2.04926 71.356 2.03082 71.2232 2.03082C71.0499 2.03082 70.847 2.09537 70.6146 2.22446C70.3823 2.35724 70.1462 2.53798 69.9065 2.76666V5.67128H69.4141V1.67673H69.9065V2.30745C70.0208 2.1968 70.1351 2.09721 70.2495 2.00869C70.3675 1.91648 70.4855 1.83718 70.6036 1.77079C70.7216 1.7044 70.8396 1.65276 70.9577 1.61587C71.0757 1.57899 71.1956 1.56055 71.3173 1.56055C71.5312 1.56055 71.7064 1.5919 71.8429 1.6546C71.983 1.7173 72.0937 1.81136 72.1748 1.93677C72.256 2.05848 72.3113 2.20971 72.3408 2.39044C72.374 2.56748 72.3906 2.77219 72.3906 3.00456V5.67128Z" fill="white"/>
<path d="M76.3322 0.695565C76.3322 0.828348 76.3064 0.91687 76.2547 0.961131C76.1994 1.00908 76.1091 1.03306 75.9836 1.03306C75.8546 1.03306 75.7642 1.00355 75.7125 0.944533C75.6646 0.885519 75.6406 0.802529 75.6406 0.695565C75.6406 0.581225 75.6664 0.498235 75.7181 0.446597C75.7697 0.394959 75.8582 0.369141 75.9836 0.369141C76.1127 0.369141 76.2031 0.394959 76.2547 0.446597C76.3064 0.498235 76.3322 0.581225 76.3322 0.695565ZM76.2326 5.66939H75.7402V1.67484H76.2326V5.66939Z" fill="white"/>
<path d="M82.0531 4.78606L82.4515 5.0295C82.3888 5.15122 82.315 5.25818 82.2302 5.35039C82.149 5.44629 82.0513 5.52559 81.9369 5.58829C81.8263 5.65469 81.7009 5.70448 81.5607 5.73768C81.4206 5.77087 81.262 5.78747 81.0849 5.78747C80.7714 5.78747 80.5095 5.73399 80.2993 5.62702C80.0854 5.52006 79.9138 5.37437 79.7847 5.18995C79.652 5.00184 79.5579 4.78053 79.5026 4.52603C79.4436 4.26784 79.4141 3.98937 79.4141 3.69061C79.4141 3.36603 79.4454 3.0728 79.5081 2.81092C79.5708 2.54535 79.6686 2.32036 79.8013 2.13594C79.9378 1.95152 80.1093 1.80951 80.3159 1.70993C80.5261 1.61034 80.7806 1.56055 81.0794 1.56055C81.3929 1.56055 81.6566 1.62325 81.8705 1.74866C82.0808 1.87406 82.2578 2.06586 82.4017 2.32405L81.9978 2.56748C81.9462 2.4679 81.889 2.38122 81.8263 2.30745C81.7673 2.23737 81.699 2.17836 81.6216 2.13041C81.5478 2.08246 81.4648 2.04742 81.3726 2.02529C81.2841 1.99947 81.1808 1.98656 81.0628 1.98656C80.6644 1.98656 80.3749 2.13225 80.1942 2.42364C80.0134 2.71133 79.9231 3.13919 79.9231 3.7072C79.9231 3.95433 79.9433 4.17932 79.9839 4.38218C80.0208 4.58505 80.0854 4.76025 80.1776 4.90778C80.2661 5.05163 80.386 5.16413 80.5372 5.24527C80.6847 5.32642 80.8673 5.36699 81.0849 5.36699C81.2103 5.36699 81.321 5.35408 81.4169 5.32826C81.5091 5.29875 81.5939 5.26003 81.6714 5.21208C81.7488 5.16044 81.8171 5.09774 81.8761 5.02397C81.9388 4.95389 81.9978 4.87459 82.0531 4.78606Z" fill="white"/>
</svg>
