<svg width="24" height="20" viewBox="0 0 24 20" fill="none" xmlns="http://www.w3.org/2000/svg">
<path fill-rule="evenodd" clip-rule="evenodd" d="M2.09491 9.04102C8.31414 6.33141 12.4613 4.54506 14.5363 3.68199C20.4609 1.21774 21.692 0.789676 22.4944 0.775541C22.6709 0.772432 23.0655 0.81617 23.3211 1.02357C23.5369 1.1987 23.5963 1.43528 23.6247 1.60132C23.6531 1.76736 23.6885 2.14561 23.6604 2.44116C23.3393 5.81453 21.9501 14.0008 21.2434 17.779C20.9443 19.3777 20.3555 19.9138 19.7854 19.9662C18.5465 20.0802 17.6057 19.1475 16.4058 18.3609C14.5282 17.1301 13.4674 16.3639 11.6448 15.1629C9.53852 13.7748 10.904 13.012 12.1043 11.7652C12.4185 11.4389 17.8771 6.47391 17.9827 6.02351C17.9959 5.96718 18.0082 5.7572 17.8835 5.64633C17.7587 5.53545 17.5746 5.57337 17.4417 5.60352C17.2534 5.64627 14.2539 7.62887 8.44304 11.5513C7.59162 12.136 6.82043 12.4208 6.12947 12.4059C5.36775 12.3895 3.90249 11.9752 2.81323 11.6211C1.4772 11.1868 0.415347 10.9572 0.50781 10.2197C0.555971 9.83551 1.085 9.44263 2.09491 9.04102Z" fill="white"/>
</svg>
