<svg width="83" height="12" viewBox="0 0 83 12" fill="none" xmlns="http://www.w3.org/2000/svg">
<path d="M0 8.90131V0.317383H1.43065V8.90131C1.43065 9.37819 1.49689 9.76235 1.62936 10.0538C1.76182 10.3452 2.0665 10.4909 2.54338 10.4909H2.8613V10.8088H1.43065C1.15578 10.8088 0.925619 10.7857 0.740164 10.7393C0.554708 10.6896 0.407338 10.5936 0.298052 10.4512C0.185454 10.3088 0.107629 10.115 0.0645768 9.86998C0.0215247 9.62822 0 9.30533 0 8.90131Z" fill="white"/>
<path d="M5.29664 10.8088V2.22492C5.29664 1.74804 5.19564 1.36388 4.99362 1.07245C4.79161 0.78102 4.41573 0.635306 3.86599 0.635306H3.70703V0.317383H4.74028C5.26021 0.317383 5.68742 0.401831 6.02191 0.570727C6.35308 0.742936 6.64119 0.976411 6.88626 1.27115L12.4499 8.18598V0.317383H13.0858V10.9678H12.7678L5.93249 2.46336V10.8088H5.29664Z" fill="white"/>
<path d="M16.6131 10.8088V2.22492C16.6131 1.74804 16.5137 1.36388 16.315 1.07245C16.113 0.78102 15.7355 0.635306 15.1824 0.635306H15.0234V0.317383H16.0567C16.5766 0.317383 17.0038 0.401831 17.3383 0.570727C17.6728 0.742936 17.9609 0.976411 18.2027 1.27115L23.7663 8.18598V0.317383H24.4022V10.9678H24.0842L17.2489 2.46336V10.8088H16.6131Z" fill="white"/>
<path d="M35.1801 5.56365C35.1801 4.8119 35.1039 4.13134 34.9516 3.52199C34.7959 2.91264 34.5757 2.3927 34.2909 1.96218C34.0028 1.53497 33.6534 1.20711 33.2427 0.978607C32.8288 0.7501 32.3618 0.635846 31.8419 0.635846C31.3219 0.635846 30.855 0.7501 30.441 0.978607C30.0304 1.20711 29.681 1.53497 29.3929 1.96218C29.1081 2.3927 28.8878 2.91264 28.7322 3.52199C28.5798 4.13134 28.5037 4.8119 28.5037 5.56365C28.5037 6.31541 28.5798 6.99596 28.7322 7.60531C28.8878 8.21467 29.1081 8.7346 29.3929 9.16512C29.681 9.59565 30.0304 9.9235 30.441 10.1487C30.855 10.3772 31.3219 10.4915 31.8419 10.4915C32.3618 10.4915 32.8288 10.3772 33.2427 10.1487C33.6534 9.9235 34.0028 9.59565 34.2909 9.16512C34.5757 8.7346 34.7959 8.21467 34.9516 7.60531C35.1039 6.99596 35.1801 6.31541 35.1801 5.56365ZM26.9141 5.56365C26.9141 4.79203 27.0283 4.06677 27.2568 3.38787C27.4853 2.70897 27.8132 2.11783 28.2404 1.61445C28.6709 1.11107 29.1909 0.716983 29.8002 0.432177C30.4096 0.144059 31.0901 0 31.8419 0C32.5936 0 33.2742 0.144059 33.8835 0.432177C34.4929 0.716983 35.0128 1.11107 35.4433 1.61445C35.8706 2.11783 36.1984 2.70897 36.4269 3.38787C36.6554 4.06677 36.7697 4.79203 36.7697 5.56365C36.7697 6.34853 36.6554 7.0771 36.4269 7.74937C36.1984 8.42165 35.8706 9.00947 35.4433 9.51285C35.0128 10.0162 34.4929 10.412 33.8835 10.7001C33.2742 10.9849 32.5936 11.1273 31.8419 11.1273C31.0901 11.1273 30.4096 10.9849 29.8002 10.7001C29.1909 10.412 28.6709 10.0162 28.2404 9.51285C27.8132 9.00947 27.4853 8.42165 27.2568 7.74937C27.0283 7.0771 26.9141 6.34853 26.9141 5.56365Z" fill="white"/>
<path d="M40.9813 1.12709V10.0488C41.6072 10.1846 42.147 10.2525 42.6007 10.2525C43.1836 10.2525 43.73 10.1448 44.24 9.92959C44.75 9.71102 45.1905 9.39806 45.5614 8.99072C45.9323 8.58338 46.2237 8.08994 46.4357 7.51039C46.6476 6.93416 46.7536 6.28506 46.7536 5.56311C46.7536 4.86434 46.6493 4.22684 46.4406 3.65061C46.2353 3.07106 45.9472 2.57431 45.5763 2.16034C45.2054 1.74969 44.7633 1.43177 44.2499 1.20657C43.7333 0.98469 43.1736 0.873748 42.5709 0.873748C42.3391 0.873748 42.0874 0.895274 41.8158 0.938326C41.5443 0.981378 41.2661 1.0443 40.9813 1.12709ZM38.0703 0.317383H42.2381C43.2879 0.317383 44.2036 0.439916 44.9851 0.684981C45.77 0.926735 46.4191 1.27115 46.9324 1.71823C47.449 2.162 47.8365 2.70512 48.0948 3.34759C48.3531 3.98674 48.4823 4.70373 48.4823 5.49854C48.4823 6.27347 48.3581 6.98714 48.1097 7.63955C47.8613 8.29195 47.4938 8.84997 47.0069 9.31361C46.5201 9.78056 45.9124 10.1465 45.1838 10.4114C44.4586 10.6764 43.6141 10.8088 42.6504 10.8088H39.501V2.22492C39.501 1.74804 39.4347 1.36388 39.3023 1.07245C39.1698 0.78102 38.8651 0.635306 38.3882 0.635306H38.0703V0.317383Z" fill="white"/>
<path d="M49.7578 0.317383H56.5335C56.8084 0.317383 57.0336 0.355467 57.2091 0.431636C57.3813 0.504494 57.5188 0.598877 57.6214 0.714786C57.7208 0.830696 57.7887 0.966476 57.8251 1.12213C57.8648 1.27446 57.8847 1.43011 57.8847 1.58907V2.78129H57.5668C57.5668 2.14544 57.3946 1.6818 57.0502 1.39037C56.7058 1.09894 56.2156 0.953229 55.5798 0.953229H52.6191V5.08623H56.9111V5.72207H52.6191V10.173H55.4009C56.1229 10.173 56.6925 10.0405 57.1098 9.77559C57.5304 9.51066 57.8615 9.06027 58.1033 8.42442L58.4212 8.5039L57.8648 10.014C57.7821 10.2591 57.643 10.4528 57.4476 10.5952C57.2489 10.7376 56.9906 10.8088 56.6726 10.8088H51.1885V2.22492C51.1885 1.74804 51.1222 1.36388 50.9898 1.07245C50.8573 0.78102 50.5526 0.635306 50.0757 0.635306H49.7578V0.317383Z" fill="white"/>
<path d="M63.6199 5.40415C63.8418 5.40415 64.0935 5.36276 64.375 5.27996C64.6565 5.19386 64.9231 5.06305 65.1748 4.88753C65.4298 4.71201 65.645 4.48516 65.8205 4.20697C65.9961 3.92548 66.0838 3.58272 66.0838 3.17869C66.0838 2.76473 65.9961 2.41038 65.8205 2.11564C65.645 1.81758 65.4298 1.57914 65.1748 1.40031C64.9231 1.21816 64.6565 1.0857 64.375 1.0029C64.0935 0.9168 63.8418 0.873748 63.6199 0.873748C63.4179 0.873748 63.2076 0.890306 62.989 0.923423C62.7738 0.953229 62.5867 0.989657 62.4277 1.03271V5.24519C62.5867 5.28824 62.7738 5.32633 62.989 5.35944C63.2076 5.38925 63.4179 5.40415 63.6199 5.40415ZM65.1301 8.66286L63.5404 5.96052H62.4277V10.8088H60.9971V2.22492C60.9971 1.74804 60.9308 1.36388 60.7984 1.07245C60.6659 0.78102 60.3612 0.635306 59.8843 0.635306H59.5664V0.317383H63.6994C64.0372 0.317383 64.4346 0.347188 64.8916 0.406798C65.3453 0.463097 65.7792 0.592254 66.1931 0.794267C66.6071 0.996281 66.9565 1.28605 67.2413 1.66359C67.5294 2.03781 67.6734 2.54284 67.6734 3.17869C67.6734 3.6357 67.594 4.02317 67.435 4.3411C67.276 4.65902 67.0724 4.92064 66.824 5.12597C66.5723 5.33461 66.2958 5.49688 65.9944 5.61279C65.693 5.7287 65.4049 5.81811 65.1301 5.88104L66.7992 8.66286C67.0012 9.00397 67.1883 9.28546 67.3605 9.50735C67.536 9.72923 67.7082 9.91137 67.8771 10.0538C68.0493 10.1962 68.2199 10.3005 68.3888 10.3667C68.5577 10.4297 68.7431 10.4711 68.9451 10.4909V10.8088C68.859 10.8519 68.7282 10.89 68.5527 10.9231C68.3805 10.9529 68.1934 10.9678 67.9914 10.9678C67.7165 10.9678 67.4598 10.9314 67.2214 10.8585C66.983 10.7824 66.7511 10.6549 66.5259 10.476C66.3041 10.2972 66.0789 10.0587 65.8504 9.76069C65.6252 9.46264 65.3851 9.0967 65.1301 8.66286Z" fill="white"/>
<path d="M82.5641 11.2062V11.5242C81.9912 11.5242 81.5143 11.4579 81.1334 11.3255C80.7526 11.193 80.4512 10.9893 80.2293 10.7145C80.0075 10.4396 79.8502 10.0852 79.7574 9.6514C79.668 9.21426 79.6233 8.69929 79.6233 8.1065V1.98648L75.6493 10.8088H75.3313L71.1983 1.82752V10.8088H70.5625V0.317383H72.0726L75.8877 8.58338L79.6233 0.317383H81.054V8.1065C81.054 9.0702 81.1765 9.82858 81.4216 10.3816C81.6633 10.9314 82.0442 11.2062 82.5641 11.2062Z" fill="white"/>
</svg>
