<svg width="36" height="36" viewBox="0 0 36 36" fill="none" xmlns="http://www.w3.org/2000/svg">
<path fill-rule="evenodd" clip-rule="evenodd" d="M18 36C8.05887 36 0 27.9411 0 18C0 8.05887 8.05887 0 18 0C27.9411 0 36 8.05887 36 18C36 27.9411 27.9411 36 18 36ZM18.5933 28.0144C24.4946 28.012 29.2942 23.2112 29.2966 17.3111C29.2977 14.4513 28.1854 11.7621 26.1647 9.73906C24.1439 7.7159 21.4565 6.60124 18.5932 6.6C12.6936 6.6 7.89209 11.4013 7.88974 17.3027C7.88893 19.1891 8.3818 21.0304 9.31846 22.6536L7.8 28.2L13.474 26.7116C15.0374 27.5643 16.7975 28.0138 18.5889 28.0144H18.5933Z" fill="#28292B" fill-opacity="0.8"/>
<path fill-rule="evenodd" clip-rule="evenodd" d="M13.7369 24.7738L10.3699 25.657L11.2686 22.3742L11.0571 22.0376C10.1665 20.6212 9.69621 18.9842 9.6969 17.3032C9.69885 12.3982 13.6897 8.40771 18.5968 8.40771C20.973 8.40854 23.2067 9.33506 24.8863 11.0166C26.5659 12.6982 27.4903 14.9333 27.4894 17.3104C27.4875 22.2157 23.4966 26.2066 18.5933 26.2066H18.5897C16.9934 26.206 15.4277 25.7771 14.0618 24.9666L13.7369 24.7738ZM23.9856 19.8562C23.9188 19.7447 23.7405 19.6778 23.4731 19.5438C23.2056 19.41 21.8908 18.7631 21.6456 18.6737C21.4005 18.5845 21.2221 18.5399 21.0438 18.8076C20.8656 19.0753 20.3531 19.6778 20.197 19.8562C20.041 20.0347 19.885 20.0571 19.6177 19.9232C19.3502 19.7893 18.4885 19.5069 17.4669 18.5958C16.6719 17.8866 16.1352 17.0108 15.9792 16.7431C15.8232 16.4753 15.9625 16.3306 16.0964 16.1973C16.2167 16.0774 16.3639 15.8848 16.4976 15.7287C16.6313 15.5726 16.6759 15.461 16.765 15.2826C16.8542 15.104 16.8096 14.9479 16.7427 14.814C16.6759 14.6802 16.141 13.3638 15.9181 12.8283C15.701 12.3068 15.4806 12.3774 15.3164 12.3692C15.1606 12.3614 14.9821 12.3597 14.8038 12.3597C14.6256 12.3597 14.3358 12.4266 14.0907 12.6944C13.8455 12.9621 13.1547 13.6092 13.1547 14.9255C13.1547 16.2419 14.1129 17.5136 14.2467 17.692C14.3804 17.8706 16.1325 20.5719 18.8153 21.7303C19.4534 22.0059 19.9515 22.1704 20.34 22.2937C20.9806 22.4973 21.5637 22.4685 22.0244 22.3996C22.5383 22.3229 23.6067 21.7527 23.8297 21.128C24.0524 20.5032 24.0524 19.9677 23.9856 19.8562Z" fill="#28292B" fill-opacity="0.8"/>
</svg>
